# xmcd CD database file
#
# Track frame offsets:
#	150
#	10187
#	18800
#	29125
#	40337
#	52862
#	62737
#	72700
#	81637
#	94362
#	105887
#	117612
#	128225
#	139912
#
# Disc length: 2026 seconds
#
# Revision: 1
# Processed by: cddbd v1.5.2PL0 Copyright (c) Steve Scherf et al.
# Submitted via: CDex 1.70beta2
#
DISCID=c907e80e
DTITLE=Various Artist - Sounds Like Country - Tempo Dbcd 154
DYEAR=2000
DGENRE=Country
TTITLE0=There's Cigarettes In An Ashtray/Patsy Cline
TTITLE1=Poor Little John/Roger Miller
TTITLE2=High Noon/Cash Mccall
TTITLE3=One Is A Lonely Number/George Jones
TTITLE4=What Will My Answer Be/Cowboy Copas
TTITLE5=Just Another Man/Glen Campbell
TTITLE6=Once Upon A Time/Sanford Clark
TTITLE7=Five Minutes Of The Latest Blues/Justin Tubb
TTITLE8=Song Of The Whispereing Leaves/Hank Locklin
TTITLE9=If You Don't Believe I'm Leaving/Ferlin Husky
TTITLE10=Too Much/Red Sovine
TTITLE11=Daddy's Glad You Came Home/Marvin Rainwater
TTITLE12=I've Loved You Forever It Seems/Webb Pierce
TTITLE13=My Old Hound Dog/Stuart Hamelen
EXTD=YEAR: 2000
EXTT0=
EXTT1=
EXTT2=
EXTT3=
EXTT4=
EXTT5=
EXTT6=
EXTT7=
EXTT8=
EXTT9=
EXTT10=
EXTT11=
EXTT12=
EXTT13=
PLAYORDER=
